 <svg width="169" height="110" fill="none" xmlns="http://www.w3.org/2000/svg">
    <path
      d="M4.584 139.23a3.746 3.746 0 0 1-3.668-4.479 3.75 3.75 0 0 1 2.938-2.945 3.735 3.735 0 0 1 3.84 1.594 3.753 3.753 0 0 1-.466 4.732 3.735 3.735 0 0 1-2.644 1.098Z"
      fill="#E6E6E6"
    />
    <path
      d="m5.888 136.266-.782-.784.782-.784a.37.37 0 0 0-.521-.523l-.783.784-.783-.784a.37.37 0 1 0-.521.523l.782.784-.782.784a.373.373 0 0 0 0 .523.365.365 0 0 0 .522 0l.782-.784.783.784a.365.365 0 0 0 .522 0 .369.369 0 0 0 0-.523Z"
      fill="#fff"
    />
    <path
      d="M81.947 123.24a5.161 5.161 0 0 1-4.771-3.195 5.186 5.186 0 0 1 1.12-5.64 5.153 5.153 0 0 1 5.627-1.122 5.17 5.17 0 0 1 3.188 4.781 5.182 5.182 0 0 1-1.512 3.66 5.157 5.157 0 0 1-3.652 1.516Z"
      fill="#E6E6E6"
    />
    <path
      d="m83.748 119.147-1.08-1.082 1.08-1.083a.512.512 0 0 0-.36-.872.508.508 0 0 0-.36.15l-1.081 1.083-1.08-1.083a.508.508 0 0 0-.87.361c0 .135.053.265.149.361l1.08 1.083-1.08 1.082a.512.512 0 0 0 .36.872.508.508 0 0 0 .36-.15l1.08-1.082 1.082 1.082a.508.508 0 0 0 .87-.361.512.512 0 0 0-.15-.361Z"
      fill="#fff"
    />
    <path
      d="M59.446 62.125c5.676 0 10.278-4.611 10.278-10.3 0-5.687-4.602-10.298-10.278-10.298-5.675 0-10.277 4.61-10.277 10.299 0 5.688 4.602 10.299 10.277 10.299Z"
      fill="#FFB057"
    />
    <path
      d="M58.044 57.186a1.14 1.14 0 0 1-.914-.459l-2.804-3.746a1.148 1.148 0 0 1 .631-1.797 1.141 1.141 0 0 1 1.198.422l1.835 2.451 4.71-7.082a1.144 1.144 0 1 1 1.903 1.271l-5.607 8.43a1.146 1.146 0 0 1-.952.51ZM72.785 70.406H46.562c-1.094 0-1.98.889-1.98 1.985v2.498c0 1.097.886 1.985 1.98 1.985h26.223c1.094 0 1.98-.888 1.98-1.984v-2.5a1.983 1.983 0 0 0-1.98-1.984ZM88.114 83.343H31.232c-1.094 0-1.98.888-1.98 1.984v2.499c0 1.096.886 1.985 1.98 1.985h56.882c1.094 0 1.98-.889 1.98-1.985v-2.498a1.983 1.983 0 0 0-1.98-1.985ZM88.114 96.28H31.232c-1.094 0-1.98.888-1.98 1.984v2.499c0 1.096.886 1.984 1.98 1.984h56.882c1.094 0 1.98-.888 1.98-1.984v-2.499a1.983 1.983 0 0 0-1.98-1.985Z"
      fill="#fff"
    />
    <path
      d="m108.08 181.224-4.984-.001-2.371-19.264h7.356l-.001 19.265Z"
      fill="#FFB6B6"
    />
    <path
      d="m107.947 179.592-5.322-2.169-.152-.062-2.938 2.231a6.251 6.251 0 0 0-4.423 1.837 6.276 6.276 0 0 0-1.832 4.432v.204h16.069v-6.473h-1.402Z"
      fill="#2F2E41"
    />
    <path
      d="m150.205 177.04-4.76 1.482-7.969-17.691 7.025-2.188 5.704 18.397Z"
      fill="#FFB6B6"
    />
    <path
      d="m149.595 175.522-5.724-.489-.164-.014-2.145 3.005a6.256 6.256 0 0 0-3.68 3.069 6.28 6.28 0 0 0-.437 4.777l.06.194 15.346-4.779-1.917-6.18-1.339.417ZM130.264 82.538l2.027 5.777v3.123l-.283 3.434 3.138 11.454 2.461 25.257 12.385 37.388-9.497 2.741-24.246-61.088-7.659 61.788-8.685-.232s-1.485-3.6-1.095-5.558c.391-1.958.391.391.391-1.958s-1.694-1.329-.456-3.209c1.237-1.881 1.083-3.527 1.16-4.661.077-1.135-.704-46.944-.704-48.51 0-1.566-.27-1.223-.135-2.765s1.852-.908 1.384-3.574c-.468-2.666-.622-2.2-.545-4.195.077-1.995 1.154-13.692 1.154-13.692l29.205-1.52Z"
      fill="#2F2E41"
    />
    <path
      d="m97.76 84.417 17.41-16.826 4.826-13.692-7.118-3.102c-3.656 3.51-7.608 14.441-7.608 14.441L93.289 80.513a3.43 3.43 0 0 0-2.295 2.808 3.443 3.443 0 0 0 1.261 3.128 3.425 3.425 0 0 0 5.505-2.032Z"
      fill="#FFB8B8"
    />
    <path
      d="m110.875 52.326 9.029 2.872.034-.005c3.36-.565 6.149-6.065 7.896-10.58a6.313 6.313 0 0 0-.03-4.622 6.295 6.295 0 0 0-3.171-3.358 6.288 6.288 0 0 0-6.599.834l-4.636 3.797-2.523 11.062Z"
      fill="#FF9D63"
    />
    <path
      d="m131.798 89.96.052-.07c2.817-3.745-1.036-13.016-1.618-14.36l2.619-.778-.456-4.998-.22-2.228 2.036-1.938.007-.05 1.401-9.988 1.832-6.611a14.64 14.64 0 0 0-3.772-14.264l-3.747-3.727-4.488-7.04-7.525-.195-2.706 4.817a10.972 10.972 0 0 0-6.377 3.908 11.01 11.01 0 0 0-2.398 7.095l.254 12.824-2.7 15.89-.076 2.886-2.65 2.803.49 2.833-1.982.791-.97 4.026c-.37.465-2.817 3.564-2.84 4.427-.003.13.09.258.291.402 1.584 1.136 10.434 3.596 14.417 2.117 4.243-1.574 20.872 1.382 21.039 1.412l.087.016Z"
      fill="#FFB057"
    />
    <path
      d="m113.351 49.305-3.844-7.68c-5.58.382-16.654 6.847-16.654 6.847l-20.951 4.452a3.778 3.778 0 0 0-3.742.593 3.794 3.794 0 0 0-1.354 3.545 3.797 3.797 0 0 0 2.388 2.947 3.778 3.778 0 0 0 3.74-.603l26.652-1.914 13.765-8.187Z"
      fill="#FFB8B8"
    />
    <path
      d="m111.8 50.566 10.039-7.476 1.769-6.386a6.978 6.978 0 0 0-2.094-7.058 6.934 6.934 0 0 0-9.476.307c-3.778 3.778-8.087 9.05-7.161 12.706l.009.037 6.914 7.87Z"
      fill="#FFB057"
    />
    <path
      d="M121.929 21.967c4.931 0 8.927-4.005 8.927-8.946 0-4.94-3.996-8.946-8.927-8.946-4.93 0-8.927 4.006-8.927 8.946 0 4.941 3.997 8.946 8.927 8.946Z"
      fill="#FFB8B8"
    />
    <path
      d="M127.804 22.377c-1.493-.703-3.237-.275-4.885-.21-1.649.065-3.646-.558-3.996-2.174-.258-1.194.519-2.504.029-3.623-.534-1.221-2.137-1.395-3.423-1.737a7.892 7.892 0 0 1-4.058-2.766 7.92 7.92 0 0 1-1.64-4.636c-.089.667 1.049.886 1.424.327.374-.559.116-1.332-.296-1.863-.413-.531-.97-.956-1.281-1.552-.311-.597-.25-1.482.357-1.77a4.96 4.96 0 0 0 3.142 2.59c-.276-.84.114-1.786.743-2.408a7.196 7.196 0 0 1 2.27-1.34c2.058-.894 4.461-1.784 6.454-.752a3.86 3.86 0 0 1 1.994 2.706c3.687.312 7.472 4.314 7.262 8.015-.226 3.984-.391 4.307-3.701 11.012"
      fill="#2F2E41"
    />
    <path
      d="M172.523 186.294h-12.966l-.055-.101a14.477 14.477 0 0 1-.476-.949c-1.335-2.865-1.9-6.142-2.398-9.034l-.375-2.179a1.347 1.347 0 0 1 1.372-1.574c.267.01.526.1.742.257 1.97 1.437 3.941 2.873 5.913 4.307.747.544 1.6 1.174 2.416 1.855.079-.383.162-.768.244-1.147a1.341 1.341 0 0 1 2.454-.425l1.517 2.442c1.106 1.784 2.083 3.542 1.884 5.437a.32.32 0 0 1-.005.069c-.04.312-.114.618-.22.913l-.047.129Z"
      fill="#F0F0F0"
    />
    <path
      d="m185.537 186.575-123.21.12a.463.463 0 0 1-.463-.466.469.469 0 0 1 .463-.466l123.21-.12a.465.465 0 0 1 0 .932Z"
      fill="#CACACA"
    />
  </svg>